<?xml version="1.0" encoding="UTF-8" standalone="no"?>
<!DOCTYPE svg PUBLIC "-//W3C//DTD SVG 1.1//EN"
 "http://www.w3.org/Graphics/SVG/1.1/DTD/svg11.dtd">
<!-- Generated by graphviz version 5.0.0 (20220707.1540)
 -->
<!-- Title: UmlClassDiagram Pages: 1 -->
<svg width="2032pt" height="1452pt"
 viewBox="0.00 0.00 2031.88 1452.00" xmlns="http://www.w3.org/2000/svg" xmlns:xlink="http://www.w3.org/1999/xlink">
<g id="graph0" class="graph" transform="scale(1 1) rotate(0) translate(4 1448)">
<title>UmlClassDiagram</title>
<polygon fill="white" stroke="transparent" points="-4,4 -4,-1448 2027.88,-1448 2027.88,4 -4,4"/>
<!-- 0 -->
<g id="node1" class="node">
<title>0</title>
<polygon fill="#f2f2f2" stroke="black" points="139.54,-244.1 139.54,-436.1 451.5,-436.1 451.5,-244.1 139.54,-244.1"/>
<text text-anchor="middle" x="295.52" y="-419.5" font-family="Times,serif" font-size="14.00">Migrations</text>
<text text-anchor="middle" x="295.52" y="-402.7" font-family="Times,serif" font-size="14.00">Migrations.sol</text>
<polyline fill="none" stroke="black" points="139.54,-394.5 451.5,-394.5 "/>
<text text-anchor="start" x="147.54" y="-377.9" font-family="Times,serif" font-size="14.00">Public:</text>
<text text-anchor="start" x="147.54" y="-361.1" font-family="Times,serif" font-size="14.00"> &#160;&#160;owner: address</text>
<text text-anchor="start" x="147.54" y="-344.3" font-family="Times,serif" font-size="14.00"> &#160;&#160;last_completed_migration: uint256</text>
<polyline fill="none" stroke="black" points="139.54,-336.1 451.5,-336.1 "/>
<text text-anchor="start" x="147.54" y="-319.5" font-family="Times,serif" font-size="14.00">Public:</text>
<text text-anchor="start" x="147.54" y="-302.7" font-family="Times,serif" font-size="14.00"> &#160;&#160;&#160;&lt;&lt;modifier&gt;&gt; restricted()</text>
<text text-anchor="start" x="147.54" y="-285.9" font-family="Times,serif" font-size="14.00"> &#160;&#160;&#160;constructor()</text>
<text text-anchor="start" x="147.54" y="-269.1" font-family="Times,serif" font-size="14.00"> &#160;&#160;&#160;setCompleted(completed: uint256) &lt;&lt;restricted&gt;&gt;</text>
<text text-anchor="start" x="147.54" y="-252.3" font-family="Times,serif" font-size="14.00"> &#160;&#160;&#160;upgrade(new_address: address) &lt;&lt;restricted&gt;&gt;</text>
</g>
<!-- 0&#45;&gt;0 -->
<g id="edge1" class="edge">
<title>0&#45;&gt;0</title>
<path fill="none" stroke="black" stroke-dasharray="5,2" d="M381.9,-243.95C427.8,-228 469.5,-260.05 469.5,-340.1 469.5,-414.36 433.61,-447.32 391.77,-438.96"/>
<polygon fill="black" stroke="black" points="392.47,-435.52 381.9,-436.25 390.62,-442.27 392.47,-435.52"/>
</g>
<!-- 1 -->
<g id="node2" class="node">
<title>1</title>
<polygon fill="#f2f2f2" stroke="black" points="318.76,-737.9 318.76,-1013.9 646.28,-1013.9 646.28,-737.9 318.76,-737.9"/>
<text text-anchor="middle" x="482.52" y="-997.3" font-family="Times,serif" font-size="14.00">ConsumerRole</text>
<text text-anchor="middle" x="482.52" y="-980.5" font-family="Times,serif" font-size="14.00">coffeeaccesscontrol/ConsumerRole.sol</text>
<polyline fill="none" stroke="black" points="318.76,-972.3 646.28,-972.3 "/>
<text text-anchor="start" x="326.76" y="-955.7" font-family="Times,serif" font-size="14.00">Private:</text>
<text text-anchor="start" x="326.76" y="-938.9" font-family="Times,serif" font-size="14.00"> &#160;&#160;consumers: Roles.Role</text>
<polyline fill="none" stroke="black" points="318.76,-930.7 646.28,-930.7 "/>
<text text-anchor="start" x="326.76" y="-914.1" font-family="Times,serif" font-size="14.00">Internal:</text>
<text text-anchor="start" x="326.76" y="-897.3" font-family="Times,serif" font-size="14.00"> &#160;&#160;&#160;_addConsumer(account: address)</text>
<text text-anchor="start" x="326.76" y="-880.5" font-family="Times,serif" font-size="14.00"> &#160;&#160;&#160;_removeConsumer(account: address)</text>
<text text-anchor="start" x="326.76" y="-863.7" font-family="Times,serif" font-size="14.00">Public:</text>
<text text-anchor="start" x="326.76" y="-846.9" font-family="Times,serif" font-size="14.00"> &#160;&#160;&#160;&lt;&lt;event&gt;&gt; ConsumerAdded(account: address)</text>
<text text-anchor="start" x="326.76" y="-830.1" font-family="Times,serif" font-size="14.00"> &#160;&#160;&#160;&lt;&lt;event&gt;&gt; ConsumerRemoved(account: address)</text>
<text text-anchor="start" x="326.76" y="-813.3" font-family="Times,serif" font-size="14.00"> &#160;&#160;&#160;&lt;&lt;modifier&gt;&gt; onlyConsumer()</text>
<text text-anchor="start" x="326.76" y="-796.5" font-family="Times,serif" font-size="14.00"> &#160;&#160;&#160;constructor()</text>
<text text-anchor="start" x="326.76" y="-779.7" font-family="Times,serif" font-size="14.00"> &#160;&#160;&#160;isConsumer(account: address): bool</text>
<text text-anchor="start" x="326.76" y="-762.9" font-family="Times,serif" font-size="14.00"> &#160;&#160;&#160;addConsumer(account: address) &lt;&lt;onlyConsumer&gt;&gt;</text>
<text text-anchor="start" x="326.76" y="-746.1" font-family="Times,serif" font-size="14.00"> &#160;&#160;&#160;renounceConsumer()</text>
</g>
<!-- 6 -->
<g id="node6" class="node">
<title>6</title>
<polygon fill="#f2f2f2" stroke="black" points="568.85,-1130.9 568.85,-1214.1 768.19,-1214.1 768.19,-1130.9 568.85,-1130.9"/>
<text text-anchor="middle" x="668.52" y="-1197.5" font-family="Times,serif" font-size="14.00">&lt;&lt;Struct&gt;&gt;</text>
<text text-anchor="middle" x="668.52" y="-1180.7" font-family="Times,serif" font-size="14.00">Role</text>
<text text-anchor="middle" x="668.52" y="-1163.9" font-family="Times,serif" font-size="14.00">coffeeaccesscontrol/Roles.sol</text>
<polyline fill="none" stroke="black" points="568.85,-1155.7 768.19,-1155.7 "/>
<text text-anchor="start" x="576.85" y="-1139.1" font-family="Times,serif" font-size="14.00">bearer: mapping(address=&gt;bool)</text>
</g>
<!-- 1&#45;&gt;6 -->
<g id="edge3" class="edge">
<title>1&#45;&gt;6</title>
<path fill="none" stroke="black" d="M569.26,-1014.28C593.65,-1052.92 618.62,-1092.47 637.42,-1122.24"/>
<polygon fill="black" stroke="black" points="634.5,-1124.17 642.8,-1130.76 640.42,-1120.43 634.5,-1124.17"/>
</g>
<!-- 5 -->
<g id="node7" class="node">
<title>5</title>
<polygon fill="#f2f2f2" stroke="black" points="545.63,-1309.9 545.63,-1443.5 791.4,-1443.5 791.4,-1309.9 545.63,-1309.9"/>
<text text-anchor="middle" x="668.52" y="-1426.9" font-family="Times,serif" font-size="14.00">&lt;&lt;Library&gt;&gt;</text>
<text text-anchor="middle" x="668.52" y="-1410.1" font-family="Times,serif" font-size="14.00">Roles</text>
<text text-anchor="middle" x="668.52" y="-1393.3" font-family="Times,serif" font-size="14.00">coffeeaccesscontrol/Roles.sol</text>
<polyline fill="none" stroke="black" points="545.63,-1385.1 791.4,-1385.1 "/>
<text text-anchor="start" x="553.63" y="-1368.5" font-family="Times,serif" font-size="14.00">Internal:</text>
<text text-anchor="start" x="553.63" y="-1351.7" font-family="Times,serif" font-size="14.00"> &#160;&#160;&#160;add(role: Role, account: address)</text>
<text text-anchor="start" x="553.63" y="-1334.9" font-family="Times,serif" font-size="14.00"> &#160;&#160;&#160;remove(role: Role, account: address)</text>
<text text-anchor="start" x="553.63" y="-1318.1" font-family="Times,serif" font-size="14.00"> &#160;&#160;&#160;has(role: Role, account: address): bool</text>
</g>
<!-- 1&#45;&gt;5 -->
<g id="edge2" class="edge">
<title>1&#45;&gt;5</title>
<path fill="none" stroke="black" d="M488.29,-1014.36C496.59,-1094.15 515.8,-1194.21 559.52,-1273.4 565.05,-1283.42 571.91,-1293.02 579.47,-1302.05"/>
<polygon fill="black" stroke="black" points="577.07,-1304.61 586.29,-1309.83 582.33,-1300 577.07,-1304.61"/>
</g>
<!-- 2 -->
<g id="node3" class="node">
<title>2</title>
<polygon fill="#f2f2f2" stroke="black" points="663.87,-737.9 663.87,-1013.9 999.17,-1013.9 999.17,-737.9 663.87,-737.9"/>
<text text-anchor="middle" x="831.52" y="-997.3" font-family="Times,serif" font-size="14.00">DistributorRole</text>
<text text-anchor="middle" x="831.52" y="-980.5" font-family="Times,serif" font-size="14.00">coffeeaccesscontrol/DistributorRole.sol</text>
<polyline fill="none" stroke="black" points="663.87,-972.3 999.17,-972.3 "/>
<text text-anchor="start" x="671.87" y="-955.7" font-family="Times,serif" font-size="14.00">Private:</text>
<text text-anchor="start" x="671.87" y="-938.9" font-family="Times,serif" font-size="14.00"> &#160;&#160;distributors: Roles.Role</text>
<polyline fill="none" stroke="black" points="663.87,-930.7 999.17,-930.7 "/>
<text text-anchor="start" x="671.87" y="-914.1" font-family="Times,serif" font-size="14.00">Internal:</text>
<text text-anchor="start" x="671.87" y="-897.3" font-family="Times,serif" font-size="14.00"> &#160;&#160;&#160;_addDistributor(account: address)</text>
<text text-anchor="start" x="671.87" y="-880.5" font-family="Times,serif" font-size="14.00"> &#160;&#160;&#160;_removeDistributor(account: address)</text>
<text text-anchor="start" x="671.87" y="-863.7" font-family="Times,serif" font-size="14.00">Public:</text>
<text text-anchor="start" x="671.87" y="-846.9" font-family="Times,serif" font-size="14.00"> &#160;&#160;&#160;&lt;&lt;event&gt;&gt; DistributorAdded(account: address)</text>
<text text-anchor="start" x="671.87" y="-830.1" font-family="Times,serif" font-size="14.00"> &#160;&#160;&#160;&lt;&lt;event&gt;&gt; DistributorRemoved(account: address)</text>
<text text-anchor="start" x="671.87" y="-813.3" font-family="Times,serif" font-size="14.00"> &#160;&#160;&#160;&lt;&lt;modifier&gt;&gt; onlyDistributor()</text>
<text text-anchor="start" x="671.87" y="-796.5" font-family="Times,serif" font-size="14.00"> &#160;&#160;&#160;constructor()</text>
<text text-anchor="start" x="671.87" y="-779.7" font-family="Times,serif" font-size="14.00"> &#160;&#160;&#160;isDistributor(account: address): bool</text>
<text text-anchor="start" x="671.87" y="-762.9" font-family="Times,serif" font-size="14.00"> &#160;&#160;&#160;addDistributor(account: address) &lt;&lt;onlyDistributor&gt;&gt;</text>
<text text-anchor="start" x="671.87" y="-746.1" font-family="Times,serif" font-size="14.00"> &#160;&#160;&#160;renounceDistributor()</text>
</g>
<!-- 2&#45;&gt;6 -->
<g id="edge5" class="edge">
<title>2&#45;&gt;6</title>
<path fill="none" stroke="black" d="M755.51,-1014.28C734.22,-1052.75 712.43,-1092.13 695.99,-1121.85"/>
<polygon fill="black" stroke="black" points="692.84,-1120.31 691.06,-1130.76 698.97,-1123.7 692.84,-1120.31"/>
</g>
<!-- 2&#45;&gt;5 -->
<g id="edge4" class="edge">
<title>2&#45;&gt;5</title>
<path fill="none" stroke="black" d="M835.17,-1014.02C831.99,-1093.7 818.6,-1193.75 777.52,-1273.4 772.32,-1283.48 765.72,-1293.1 758.35,-1302.12"/>
<polygon fill="black" stroke="black" points="755.54,-1300.02 751.69,-1309.89 760.85,-1304.58 755.54,-1300.02"/>
</g>
<!-- 3 -->
<g id="node4" class="node">
<title>3</title>
<polygon fill="#f2f2f2" stroke="black" points="1016.88,-737.9 1016.88,-1013.9 1310.16,-1013.9 1310.16,-737.9 1016.88,-737.9"/>
<text text-anchor="middle" x="1163.52" y="-997.3" font-family="Times,serif" font-size="14.00">FarmerRole</text>
<text text-anchor="middle" x="1163.52" y="-980.5" font-family="Times,serif" font-size="14.00">coffeeaccesscontrol/FarmerRole.sol</text>
<polyline fill="none" stroke="black" points="1016.88,-972.3 1310.16,-972.3 "/>
<text text-anchor="start" x="1024.88" y="-955.7" font-family="Times,serif" font-size="14.00">Internal:</text>
<text text-anchor="start" x="1024.88" y="-938.9" font-family="Times,serif" font-size="14.00"> &#160;&#160;farmers: Roles.Role</text>
<polyline fill="none" stroke="black" points="1016.88,-930.7 1310.16,-930.7 "/>
<text text-anchor="start" x="1024.88" y="-914.1" font-family="Times,serif" font-size="14.00">Internal:</text>
<text text-anchor="start" x="1024.88" y="-897.3" font-family="Times,serif" font-size="14.00"> &#160;&#160;&#160;_addFarmer(account: address)</text>
<text text-anchor="start" x="1024.88" y="-880.5" font-family="Times,serif" font-size="14.00"> &#160;&#160;&#160;_removeFarmer(account: address)</text>
<text text-anchor="start" x="1024.88" y="-863.7" font-family="Times,serif" font-size="14.00">Public:</text>
<text text-anchor="start" x="1024.88" y="-846.9" font-family="Times,serif" font-size="14.00"> &#160;&#160;&#160;&lt;&lt;event&gt;&gt; FarmerAdded(account: address)</text>
<text text-anchor="start" x="1024.88" y="-830.1" font-family="Times,serif" font-size="14.00"> &#160;&#160;&#160;&lt;&lt;event&gt;&gt; FarmerRemoved(account: address)</text>
<text text-anchor="start" x="1024.88" y="-813.3" font-family="Times,serif" font-size="14.00"> &#160;&#160;&#160;&lt;&lt;modifier&gt;&gt; onlyFarmer()</text>
<text text-anchor="start" x="1024.88" y="-796.5" font-family="Times,serif" font-size="14.00"> &#160;&#160;&#160;constructor()</text>
<text text-anchor="start" x="1024.88" y="-779.7" font-family="Times,serif" font-size="14.00"> &#160;&#160;&#160;isFarmer(account: address): bool</text>
<text text-anchor="start" x="1024.88" y="-762.9" font-family="Times,serif" font-size="14.00"> &#160;&#160;&#160;addFarmer(account: address) &lt;&lt;onlyFarmer&gt;&gt;</text>
<text text-anchor="start" x="1024.88" y="-746.1" font-family="Times,serif" font-size="14.00"> &#160;&#160;&#160;renounceFarmer()</text>
</g>
<!-- 3&#45;&gt;6 -->
<g id="edge7" class="edge">
<title>3&#45;&gt;6</title>
<path fill="none" stroke="black" d="M1037.33,-1014.2C1027.93,-1021.86 1018.29,-1029.08 1008.52,-1035.6 937.58,-1082.97 847.59,-1118.02 778.01,-1140.65"/>
<polygon fill="black" stroke="black" points="776.79,-1137.37 768.34,-1143.76 778.93,-1144.03 776.79,-1137.37"/>
</g>
<!-- 3&#45;&gt;5 -->
<g id="edge6" class="edge">
<title>3&#45;&gt;5</title>
<path fill="none" stroke="black" d="M1058.29,-1014.03C993.38,-1094.18 905.88,-1194.72 817.52,-1273.4 805.87,-1283.77 793.14,-1293.96 780.17,-1303.67"/>
<polygon fill="black" stroke="black" points="778.04,-1300.89 772.07,-1309.64 782.2,-1306.52 778.04,-1300.89"/>
</g>
<!-- 4 -->
<g id="node5" class="node">
<title>4</title>
<polygon fill="#f2f2f2" stroke="black" points="0,-737.9 0,-1013.9 301.04,-1013.9 301.04,-737.9 0,-737.9"/>
<text text-anchor="middle" x="150.52" y="-997.3" font-family="Times,serif" font-size="14.00">RetailerRole</text>
<text text-anchor="middle" x="150.52" y="-980.5" font-family="Times,serif" font-size="14.00">coffeeaccesscontrol/RetailerRole.sol</text>
<polyline fill="none" stroke="black" points="0,-972.3 301.04,-972.3 "/>
<text text-anchor="start" x="8" y="-955.7" font-family="Times,serif" font-size="14.00">Private:</text>
<text text-anchor="start" x="8" y="-938.9" font-family="Times,serif" font-size="14.00"> &#160;&#160;retailers: Roles.Role</text>
<polyline fill="none" stroke="black" points="0,-930.7 301.04,-930.7 "/>
<text text-anchor="start" x="8" y="-914.1" font-family="Times,serif" font-size="14.00">Internal:</text>
<text text-anchor="start" x="8" y="-897.3" font-family="Times,serif" font-size="14.00"> &#160;&#160;&#160;_addRetailer(account: address)</text>
<text text-anchor="start" x="8" y="-880.5" font-family="Times,serif" font-size="14.00"> &#160;&#160;&#160;_removeRetailer(account: address)</text>
<text text-anchor="start" x="8" y="-863.7" font-family="Times,serif" font-size="14.00">Public:</text>
<text text-anchor="start" x="8" y="-846.9" font-family="Times,serif" font-size="14.00"> &#160;&#160;&#160;&lt;&lt;event&gt;&gt; RetailerAdded(account: address)</text>
<text text-anchor="start" x="8" y="-830.1" font-family="Times,serif" font-size="14.00"> &#160;&#160;&#160;&lt;&lt;event&gt;&gt; RetailerRemoved(account: address)</text>
<text text-anchor="start" x="8" y="-813.3" font-family="Times,serif" font-size="14.00"> &#160;&#160;&#160;&lt;&lt;modifier&gt;&gt; onlyRetailer()</text>
<text text-anchor="start" x="8" y="-796.5" font-family="Times,serif" font-size="14.00"> &#160;&#160;&#160;constructor()</text>
<text text-anchor="start" x="8" y="-779.7" font-family="Times,serif" font-size="14.00"> &#160;&#160;&#160;isRetailer(account: address): bool</text>
<text text-anchor="start" x="8" y="-762.9" font-family="Times,serif" font-size="14.00"> &#160;&#160;&#160;addRetailer(account: address) &lt;&lt;onlyRetailer&gt;&gt;</text>
<text text-anchor="start" x="8" y="-746.1" font-family="Times,serif" font-size="14.00"> &#160;&#160;&#160;renounceRetailer()</text>
</g>
<!-- 4&#45;&gt;6 -->
<g id="edge9" class="edge">
<title>4&#45;&gt;6</title>
<path fill="none" stroke="black" d="M279.55,-1013.99C289.33,-1021.75 299.36,-1029.04 309.52,-1035.6 386.68,-1085.41 484.81,-1120.97 558.96,-1143.19"/>
<polygon fill="black" stroke="black" points="558.22,-1146.62 568.8,-1146.11 560.2,-1139.91 558.22,-1146.62"/>
</g>
<!-- 4&#45;&gt;5 -->
<g id="edge8" class="edge">
<title>4&#45;&gt;5</title>
<path fill="none" stroke="black" d="M250.76,-1014.14C314.48,-1095.55 401.99,-1197.34 493.52,-1273.4 506.99,-1284.6 521.85,-1295.31 537.03,-1305.3"/>
<polygon fill="black" stroke="black" points="535.19,-1308.28 545.49,-1310.77 539,-1302.4 535.19,-1308.28"/>
</g>
<!-- 6&#45;&gt;5 -->
<g id="edge10" class="edge">
<title>6&#45;&gt;5</title>
<path fill="none" stroke="black" d="M662.97,-1214.42C661.88,-1238.24 661.53,-1269.08 661.92,-1297.39"/>
<polygon fill="black" stroke="black" points="661.93,-1297.77 666.04,-1303.7 662.15,-1309.77 658.04,-1303.84 661.93,-1297.77"/>
</g>
<!-- 5&#45;&gt;6 -->
<g id="edge11" class="edge">
<title>5&#45;&gt;6</title>
<path fill="none" stroke="black" stroke-dasharray="5,2" d="M674.89,-1309.77C675.51,-1282.16 675.37,-1250.55 674.48,-1224.73"/>
<polygon fill="black" stroke="black" points="677.96,-1224.27 674.07,-1214.42 670.97,-1224.55 677.96,-1224.27"/>
</g>
<!-- 8 -->
<g id="node8" class="node">
<title>8</title>
<polygon fill="#f2f2f2" stroke="black" points="1464.18,-1072.1 1464.18,-1272.9 1636.86,-1272.9 1636.86,-1072.1 1464.18,-1072.1"/>
<text text-anchor="middle" x="1550.52" y="-1256.3" font-family="Times,serif" font-size="14.00">&lt;&lt;Enum&gt;&gt;</text>
<text text-anchor="middle" x="1550.52" y="-1239.5" font-family="Times,serif" font-size="14.00">State</text>
<text text-anchor="middle" x="1550.52" y="-1222.7" font-family="Times,serif" font-size="14.00">coffeebase/SupplyChain.sol</text>
<polyline fill="none" stroke="black" points="1464.18,-1214.5 1636.86,-1214.5 "/>
<text text-anchor="start" x="1472.18" y="-1197.9" font-family="Times,serif" font-size="14.00">Harvested: 0</text>
<text text-anchor="start" x="1472.18" y="-1181.1" font-family="Times,serif" font-size="14.00">Processed: 1</text>
<text text-anchor="start" x="1472.18" y="-1164.3" font-family="Times,serif" font-size="14.00">Packed: 2</text>
<text text-anchor="start" x="1472.18" y="-1147.5" font-family="Times,serif" font-size="14.00">ForSale: 3</text>
<text text-anchor="start" x="1472.18" y="-1130.7" font-family="Times,serif" font-size="14.00">Sold: 4</text>
<text text-anchor="start" x="1472.18" y="-1113.9" font-family="Times,serif" font-size="14.00">Shipped: 5</text>
<text text-anchor="start" x="1472.18" y="-1097.1" font-family="Times,serif" font-size="14.00">Received: 6</text>
<text text-anchor="start" x="1472.18" y="-1080.3" font-family="Times,serif" font-size="14.00">Purchased: 7</text>
</g>
<!-- 7 -->
<g id="node10" class="node">
<title>7</title>
<polygon fill="#f2f2f2" stroke="black" points="487.52,-0.5 487.52,-679.7 1839.52,-679.7 1839.52,-0.5 487.52,-0.5"/>
<text text-anchor="middle" x="1163.52" y="-663.1" font-family="Times,serif" font-size="14.00">SupplyChain</text>
<text text-anchor="middle" x="1163.52" y="-646.3" font-family="Times,serif" font-size="14.00">coffeebase/SupplyChain.sol</text>
<polyline fill="none" stroke="black" points="487.52,-638.1 1839.52,-638.1 "/>
<text text-anchor="start" x="495.52" y="-621.5" font-family="Times,serif" font-size="14.00">Public:</text>
<text text-anchor="start" x="495.52" y="-604.7" font-family="Times,serif" font-size="14.00"> &#160;&#160;upc: uint256</text>
<text text-anchor="start" x="495.52" y="-587.9" font-family="Times,serif" font-size="14.00"> &#160;&#160;sku: uint256</text>
<text text-anchor="start" x="495.52" y="-571.1" font-family="Times,serif" font-size="14.00"> &#160;&#160;items: mapping(uint256=&gt;Item)</text>
<text text-anchor="start" x="495.52" y="-554.3" font-family="Times,serif" font-size="14.00"> &#160;&#160;defaultState: State</text>
<polyline fill="none" stroke="black" points="487.52,-546.1 1839.52,-546.1 "/>
<text text-anchor="start" x="495.52" y="-529.5" font-family="Times,serif" font-size="14.00">Public:</text>
<text text-anchor="start" x="495.52" y="-512.7" font-family="Times,serif" font-size="14.00"> &#160;&#160;&#160;&lt;&lt;payable&gt;&gt; buyItem(_upc: uint256) &lt;&lt;forSale, paidEnough, checkValue, onlyDistributor&gt;&gt;</text>
<text text-anchor="start" x="495.52" y="-495.9" font-family="Times,serif" font-size="14.00"> &#160;&#160;&#160;&lt;&lt;payable&gt;&gt; purchaseItem(_upc: uint256) &lt;&lt;received, paidEnough, checkValue, onlyConsumer&gt;&gt;</text>
<text text-anchor="start" x="495.52" y="-479.1" font-family="Times,serif" font-size="14.00"> &#160;&#160;&#160;&lt;&lt;event&gt;&gt; Harvested(upc: uint256)</text>
<text text-anchor="start" x="495.52" y="-462.3" font-family="Times,serif" font-size="14.00"> &#160;&#160;&#160;&lt;&lt;event&gt;&gt; Processed(upc: uint256)</text>
<text text-anchor="start" x="495.52" y="-445.5" font-family="Times,serif" font-size="14.00"> &#160;&#160;&#160;&lt;&lt;event&gt;&gt; Packed(upc: uint256)</text>
<text text-anchor="start" x="495.52" y="-428.7" font-family="Times,serif" font-size="14.00"> &#160;&#160;&#160;&lt;&lt;event&gt;&gt; ForSale(upc: uint256)</text>
<text text-anchor="start" x="495.52" y="-411.9" font-family="Times,serif" font-size="14.00"> &#160;&#160;&#160;&lt;&lt;event&gt;&gt; Sold(upc: uint256)</text>
<text text-anchor="start" x="495.52" y="-395.1" font-family="Times,serif" font-size="14.00"> &#160;&#160;&#160;&lt;&lt;event&gt;&gt; Shipped(upc: uint256)</text>
<text text-anchor="start" x="495.52" y="-378.3" font-family="Times,serif" font-size="14.00"> &#160;&#160;&#160;&lt;&lt;event&gt;&gt; Received(upc: uint256)</text>
<text text-anchor="start" x="495.52" y="-361.5" font-family="Times,serif" font-size="14.00"> &#160;&#160;&#160;&lt;&lt;event&gt;&gt; Purchased(upc: uint256)</text>
<text text-anchor="start" x="495.52" y="-344.7" font-family="Times,serif" font-size="14.00"> &#160;&#160;&#160;&lt;&lt;modifier&gt;&gt; verifyCaller(_address: address)</text>
<text text-anchor="start" x="495.52" y="-327.9" font-family="Times,serif" font-size="14.00"> &#160;&#160;&#160;&lt;&lt;modifier&gt;&gt; paidEnough(_price: uint256)</text>
<text text-anchor="start" x="495.52" y="-311.1" font-family="Times,serif" font-size="14.00"> &#160;&#160;&#160;&lt;&lt;modifier&gt;&gt; checkValue(_upc: uint256)</text>
<text text-anchor="start" x="495.52" y="-294.3" font-family="Times,serif" font-size="14.00"> &#160;&#160;&#160;&lt;&lt;modifier&gt;&gt; harvested(_upc: uint256)</text>
<text text-anchor="start" x="495.52" y="-277.5" font-family="Times,serif" font-size="14.00"> &#160;&#160;&#160;&lt;&lt;modifier&gt;&gt; processed(_upc: uint256)</text>
<text text-anchor="start" x="495.52" y="-260.7" font-family="Times,serif" font-size="14.00"> &#160;&#160;&#160;&lt;&lt;modifier&gt;&gt; packed(_upc: uint256)</text>
<text text-anchor="start" x="495.52" y="-243.9" font-family="Times,serif" font-size="14.00"> &#160;&#160;&#160;&lt;&lt;modifier&gt;&gt; forSale(_upc: uint256)</text>
<text text-anchor="start" x="495.52" y="-227.1" font-family="Times,serif" font-size="14.00"> &#160;&#160;&#160;&lt;&lt;modifier&gt;&gt; sold(_upc: uint256)</text>
<text text-anchor="start" x="495.52" y="-210.3" font-family="Times,serif" font-size="14.00"> &#160;&#160;&#160;&lt;&lt;modifier&gt;&gt; shipped(_upc: uint256)</text>
<text text-anchor="start" x="495.52" y="-193.5" font-family="Times,serif" font-size="14.00"> &#160;&#160;&#160;&lt;&lt;modifier&gt;&gt; received(_upc: uint256)</text>
<text text-anchor="start" x="495.52" y="-176.7" font-family="Times,serif" font-size="14.00"> &#160;&#160;&#160;&lt;&lt;modifier&gt;&gt; purchased(_upc: uint256)</text>
<text text-anchor="start" x="495.52" y="-159.9" font-family="Times,serif" font-size="14.00"> &#160;&#160;&#160;constructor()</text>
<text text-anchor="start" x="495.52" y="-143.1" font-family="Times,serif" font-size="14.00"> &#160;&#160;&#160;kill() &lt;&lt;onlyOwner&gt;&gt;</text>
<text text-anchor="start" x="495.52" y="-126.3" font-family="Times,serif" font-size="14.00"> &#160;&#160;&#160;harvestItem(_upc: uint256, _originFarmerID: address, _originFarmName: string, _originFarmInformation: string, _originFarmLatitude: string, _originFarmLongitude: string, _productNotes: string) &lt;&lt;onlyFarmer&gt;&gt;</text>
<text text-anchor="start" x="495.52" y="-109.5" font-family="Times,serif" font-size="14.00"> &#160;&#160;&#160;processItem(_upc: uint256) &lt;&lt;harvested, onlyFarmer&gt;&gt;</text>
<text text-anchor="start" x="495.52" y="-92.7" font-family="Times,serif" font-size="14.00"> &#160;&#160;&#160;packItem(_upc: uint256) &lt;&lt;processed, onlyFarmer&gt;&gt;</text>
<text text-anchor="start" x="495.52" y="-75.9" font-family="Times,serif" font-size="14.00"> &#160;&#160;&#160;sellItem(_upc: uint256, _price: uint256) &lt;&lt;packed, onlyFarmer&gt;&gt;</text>
<text text-anchor="start" x="495.52" y="-59.1" font-family="Times,serif" font-size="14.00"> &#160;&#160;&#160;shipItem(_upc: uint256) &lt;&lt;sold, onlyDistributor&gt;&gt;</text>
<text text-anchor="start" x="495.52" y="-42.3" font-family="Times,serif" font-size="14.00"> &#160;&#160;&#160;receiveItem(_upc: uint256) &lt;&lt;shipped, onlyRetailer&gt;&gt;</text>
<text text-anchor="start" x="495.52" y="-25.5" font-family="Times,serif" font-size="14.00"> &#160;&#160;&#160;fetchItemBufferOne(_upc: uint256): (itemSKU: uint256, itemUPC: uint256, ownerID: address, originFarmerID: address, originFarmName: string, originFarmInformation: string, originFarmLatitude: string, originFarmLongitude: string)</text>
<text text-anchor="start" x="495.52" y="-8.7" font-family="Times,serif" font-size="14.00"> &#160;&#160;&#160;fetchItemBufferTwo(_upc: uint256): (itemSKU: uint256, itemUPC: uint256, productID: uint256, productNotes: string, productPrice: uint256, itemState: uint256, distributorID: address, retailerID: address, consumerID: address)</text>
</g>
<!-- 8&#45;&gt;7 -->
<g id="edge13" class="edge">
<title>8&#45;&gt;7</title>
<path fill="none" stroke="black" d="M1570.38,-1071.91C1580.59,-976.47 1581.52,-830.47 1531.52,-716.2 1527.74,-707.56 1523.67,-699.01 1519.34,-690.54"/>
<polygon fill="black" stroke="black" points="1519.31,-690.47 1512.97,-687.03 1513.72,-679.85 1520.05,-683.3 1519.31,-690.47"/>
</g>
<!-- 9 -->
<g id="node9" class="node">
<title>9</title>
<polygon fill="#f2f2f2" stroke="black" points="1327.95,-716.7 1327.95,-1035.1 1513.09,-1035.1 1513.09,-716.7 1327.95,-716.7"/>
<text text-anchor="middle" x="1420.52" y="-1018.5" font-family="Times,serif" font-size="14.00">&lt;&lt;Struct&gt;&gt;</text>
<text text-anchor="middle" x="1420.52" y="-1001.7" font-family="Times,serif" font-size="14.00">Item</text>
<text text-anchor="middle" x="1420.52" y="-984.9" font-family="Times,serif" font-size="14.00">coffeebase/SupplyChain.sol</text>
<polyline fill="none" stroke="black" points="1327.95,-976.7 1513.09,-976.7 "/>
<text text-anchor="start" x="1335.95" y="-960.1" font-family="Times,serif" font-size="14.00">sku: uint256</text>
<text text-anchor="start" x="1335.95" y="-943.3" font-family="Times,serif" font-size="14.00">upc: uint256</text>
<text text-anchor="start" x="1335.95" y="-926.5" font-family="Times,serif" font-size="14.00">ownerID: address</text>
<text text-anchor="start" x="1335.95" y="-909.7" font-family="Times,serif" font-size="14.00">originFarmerID: address</text>
<text text-anchor="start" x="1335.95" y="-892.9" font-family="Times,serif" font-size="14.00">originFarmName: string</text>
<text text-anchor="start" x="1335.95" y="-876.1" font-family="Times,serif" font-size="14.00">originFarmInformation: string</text>
<text text-anchor="start" x="1335.95" y="-859.3" font-family="Times,serif" font-size="14.00">originFarmLatitude: string</text>
<text text-anchor="start" x="1335.95" y="-842.5" font-family="Times,serif" font-size="14.00">originFarmLongitude: string</text>
<text text-anchor="start" x="1335.95" y="-825.7" font-family="Times,serif" font-size="14.00">productID: uint256</text>
<text text-anchor="start" x="1335.95" y="-808.9" font-family="Times,serif" font-size="14.00">productNotes: string</text>
<text text-anchor="start" x="1335.95" y="-792.1" font-family="Times,serif" font-size="14.00">productPrice: uint256</text>
<text text-anchor="start" x="1335.95" y="-775.3" font-family="Times,serif" font-size="14.00">itemState: State</text>
<text text-anchor="start" x="1335.95" y="-758.5" font-family="Times,serif" font-size="14.00">distributorID: address</text>
<text text-anchor="start" x="1335.95" y="-741.7" font-family="Times,serif" font-size="14.00">retailerID: address</text>
<text text-anchor="start" x="1335.95" y="-724.9" font-family="Times,serif" font-size="14.00">consumerID: address</text>
</g>
<!-- 9&#45;&gt;8 -->
<g id="edge12" class="edge">
<title>9&#45;&gt;8</title>
<path fill="none" stroke="black" stroke-dasharray="5,2" d="M1490.47,-1035.41C1494.52,-1044.61 1498.56,-1053.75 1502.5,-1062.68"/>
<polygon fill="black" stroke="black" points="1499.34,-1064.18 1506.58,-1071.92 1505.74,-1061.36 1499.34,-1064.18"/>
</g>
<!-- 9&#45;&gt;7 -->
<g id="edge14" class="edge">
<title>9&#45;&gt;7</title>
<path fill="none" stroke="black" d="M1350.51,-716.56C1346.57,-708.19 1342.53,-699.64 1338.42,-690.97"/>
<polygon fill="black" stroke="black" points="1338.32,-690.76 1332.13,-687.06 1333.17,-679.92 1339.36,-683.63 1338.32,-690.76"/>
</g>
<!-- 7&#45;&gt;1 -->
<g id="edge15" class="edge">
<title>7&#45;&gt;1</title>
<path fill="none" stroke="black" d="M699.24,-679.86C684.07,-692.01 669.12,-704.14 654.52,-716.2 653.73,-716.85 652.93,-717.51 652.14,-718.17"/>
<polygon fill="none" stroke="black" points="644.97,-710.48 628.87,-737.89 658.55,-726.5 644.97,-710.48"/>
</g>
<!-- 7&#45;&gt;2 -->
<g id="edge16" class="edge">
<title>7&#45;&gt;2</title>
<path fill="none" stroke="black" d="M952.79,-679.92C945.98,-690.86 939.29,-701.63 932.75,-712.14"/>
<polygon fill="none" stroke="black" points="923.78,-706.68 916.85,-737.7 941.61,-717.77 923.78,-706.68"/>
</g>
<!-- 7&#45;&gt;3 -->
<g id="edge17" class="edge">
<title>7&#45;&gt;3</title>
<path fill="none" stroke="black" d="M1163.52,-679.92C1163.52,-689.3 1163.52,-698.55 1163.52,-707.62"/>
<polygon fill="none" stroke="black" points="1153.02,-707.7 1163.52,-737.7 1174.02,-707.7 1153.02,-707.7"/>
</g>
<!-- 7&#45;&gt;4 -->
<g id="edge18" class="edge">
<title>7&#45;&gt;4</title>
<path fill="none" stroke="black" d="M487.46,-677.06C484.48,-678.12 481.5,-679.16 478.52,-680.2 405.99,-705.43 377.02,-679.57 309.52,-716.2 306.74,-717.71 303.97,-719.28 301.23,-720.91"/>
<polygon fill="none" stroke="black" points="295.14,-712.36 276.04,-737.76 306.81,-729.81 295.14,-712.36"/>
</g>
<!-- 7&#45;&gt;8 -->
<g id="edge21" class="edge">
<title>7&#45;&gt;8</title>
<path fill="none" stroke="black" d="M1495.72,-679.85C1502.18,-691.79 1508.14,-703.92 1513.52,-716.2 1561.76,-826.45 1562.6,-966.25 1557.19,-1061.66"/>
<polygon fill="black" stroke="black" points="1553.68,-1061.72 1556.58,-1071.91 1560.67,-1062.14 1553.68,-1061.72"/>
</g>
<!-- 7&#45;&gt;9 -->
<g id="edge20" class="edge">
<title>7&#45;&gt;9</title>
<path fill="none" stroke="black" d="M1320.12,-679.92C1324.68,-689.28 1329.2,-698.51 1333.64,-707.56"/>
<polygon fill="black" stroke="black" points="1330.51,-709.12 1338.06,-716.56 1336.79,-706.04 1330.51,-709.12"/>
</g>
<!-- 10 -->
<g id="node11" class="node">
<title>10</title>
<polygon fill="#f2f2f2" stroke="black" points="1587.15,-746.3 1587.15,-1005.5 2023.88,-1005.5 2023.88,-746.3 1587.15,-746.3"/>
<text text-anchor="middle" x="1805.52" y="-988.9" font-family="Times,serif" font-size="14.00">Ownable</text>
<text text-anchor="middle" x="1805.52" y="-972.1" font-family="Times,serif" font-size="14.00">coffeecore/Ownable.sol</text>
<polyline fill="none" stroke="black" points="1587.15,-963.9 2023.88,-963.9 "/>
<text text-anchor="start" x="1595.15" y="-947.3" font-family="Times,serif" font-size="14.00">Internal:</text>
<text text-anchor="start" x="1595.15" y="-930.5" font-family="Times,serif" font-size="14.00"> &#160;&#160;origOwner: address</text>
<polyline fill="none" stroke="black" points="1587.15,-922.3 2023.88,-922.3 "/>
<text text-anchor="start" x="1595.15" y="-905.7" font-family="Times,serif" font-size="14.00">Internal:</text>
<text text-anchor="start" x="1595.15" y="-888.9" font-family="Times,serif" font-size="14.00"> &#160;&#160;&#160;_transferOwnership(newOwner: address)</text>
<text text-anchor="start" x="1595.15" y="-872.1" font-family="Times,serif" font-size="14.00">Public:</text>
<text text-anchor="start" x="1595.15" y="-855.3" font-family="Times,serif" font-size="14.00"> &#160;&#160;&#160;&lt;&lt;event&gt;&gt; TransferOwnership(oldOwner: address, newOwner: address)</text>
<text text-anchor="start" x="1595.15" y="-838.5" font-family="Times,serif" font-size="14.00"> &#160;&#160;&#160;&lt;&lt;modifier&gt;&gt; onlyOwner()</text>
<text text-anchor="start" x="1595.15" y="-821.7" font-family="Times,serif" font-size="14.00"> &#160;&#160;&#160;constructor()</text>
<text text-anchor="start" x="1595.15" y="-804.9" font-family="Times,serif" font-size="14.00"> &#160;&#160;&#160;owner(): address</text>
<text text-anchor="start" x="1595.15" y="-788.1" font-family="Times,serif" font-size="14.00"> &#160;&#160;&#160;isOwner(): bool</text>
<text text-anchor="start" x="1595.15" y="-771.3" font-family="Times,serif" font-size="14.00"> &#160;&#160;&#160;renounceOwnership() &lt;&lt;onlyOwner&gt;&gt;</text>
<text text-anchor="start" x="1595.15" y="-754.5" font-family="Times,serif" font-size="14.00"> &#160;&#160;&#160;transferOwnership(newOwner: address) &lt;&lt;onlyOwner&gt;&gt;</text>
</g>
<!-- 7&#45;&gt;10 -->
<g id="edge19" class="edge">
<title>7&#45;&gt;10</title>
<path fill="none" stroke="black" d="M1571.02,-679.92C1590.34,-695.98 1609.2,-711.67 1627.31,-726.72"/>
<polygon fill="none" stroke="black" points="1620.87,-735.02 1650.65,-746.13 1634.29,-718.87 1620.87,-735.02"/>
</g>
</g>
</svg>
